<svg id="F1_Logo" data-name="F1 Logo" xmlns="http://www.w3.org/2000/svg" viewBox="0 0 192 48"><defs><style>.cls-1{fill:#ff1e00;}</style></defs><title>F1_Logo_Standard_WarmRed_RGB</title><path class="cls-1" d="M156.2,42.91h1.9V48h1.05V42.91h1.91V42H156.2ZM161.74,48h1V43.37h0L164.42,48h.86L167,43.37h0V48h1V42H166.5l-1.61,4.7h0L163.22,42h-1.48ZM48.19,27.35,26.9,48H-.25L33.53,14.47C46.09,2,52.14,0,73.56,0h84.59L139.79,18H76C60,18,56.58,19.21,48.19,27.35Zm88.86-6.51H76.37c-16.12,0-18.64,1.24-25.95,8.55L31.81,48H57l6-6c4-4,5.73-4.34,13.71-4.34h43.53ZM143.87,48,192,0H161.85l-48,48Z"/></svg>